<?xml version="1.0" encoding="UTF-8"?>
<svg id="Layer_1" xmlns="http://www.w3.org/2000/svg" version="1.1" viewBox="0 0 1920 1080">
  <!-- Generator: Adobe Illustrator 30.2.1, SVG Export Plug-In . SVG Version: 2.1.1 Build 1)  -->
  <defs>
    <style>
      .st0 {
        font-family: Kanit-SemiBold, Kanit;
        font-size: 344.37px;
        font-weight: 600;
        letter-spacing: 0em;
      }

      .st0, .st1 {
        fill: #fff;
      }

      .st2 {
        fill: #ff394a;
      }
    </style>
  </defs>
  <g>
    <path class="st2" d="M851.91,360.9c3.21-6.34,7.79-11.25,13.74-14.74,5.95-3.48,12.84-5.23,20.67-5.23,9.08,0,16.7,2.47,22.84,7.4,6.15,4.93,10,11.67,11.57,20.2h-10.22c-1.49-5.71-4.4-10.18-8.75-13.39-4.34-3.21-9.65-4.82-15.91-4.82-5.64,0-10.61,1.37-14.92,4.11-4.31,2.74-7.62,6.56-9.92,11.45-2.31,4.89-3.46,10.51-3.46,16.85s1.15,11.86,3.46,16.79c2.31,4.93,5.62,8.77,9.92,11.51,4.31,2.74,9.28,4.11,14.92,4.11,6.34,0,11.63-1.59,15.85-4.76,4.23-3.17,7.12-7.65,8.69-13.45h10.22c-1.57,8.53-5.38,15.27-11.45,20.2-6.07,4.93-13.68,7.4-22.84,7.4-7.83,0-14.72-1.74-20.67-5.23-5.95-3.48-10.53-8.38-13.74-14.68-3.21-6.3-4.82-13.6-4.82-21.9s1.6-15.5,4.82-21.84Z"/>
    <path class="st2" d="M957.02,341.52h10.22v35.82h42.51v-35.82h10.22v82.33h-10.22v-37.11h-42.51v37.11h-10.22v-82.33Z"/>
    <path class="st2" d="M1052.73,423.85l31.36-82.21h12.1l31.24,82.21h-10.92l-8.69-22.2h-35.82l-8.69,22.2h-10.57ZM1075.05,392.37h29.71l-14.91-39.58-14.8,39.58Z"/>
    <path class="st2" d="M1191.78,341.64c5.4,0,10.18,1.04,14.33,3.11,4.15,2.07,7.34,5.01,9.57,8.81,2.23,3.8,3.35,8.24,3.35,13.33s-1.14,9.55-3.41,13.39c-2.27,3.84-5.46,6.79-9.57,8.87-4.11,2.08-8.87,3.11-14.27,3.11h-21.37v31.59h-10.22v-82.21h31.59ZM1170.41,382.86h20.43c5.4,0,9.71-1.45,12.92-4.34,3.21-2.9,4.82-6.77,4.82-11.63s-1.59-8.71-4.76-11.57c-3.17-2.86-7.46-4.29-12.86-4.29h-20.55v31.83Z"/>
    <path class="st2" d="M1248.39,341.64h63.54v9.4h-26.66v72.81h-10.22v-72.81h-26.66v-9.4Z"/>
    <path class="st2" d="M1346.33,341.64h52.38v9.4h-42.16v26.31h35.11v9.4h-35.11v27.72h43.69v9.4h-53.91v-82.21Z"/>
    <path class="st2" d="M1466.71,341.64c5.4,0,10.18,1.04,14.33,3.11,4.15,2.07,7.36,5.01,9.63,8.81,2.27,3.8,3.41,8.24,3.41,13.33,0,5.72-1.59,10.67-4.76,14.86-3.17,4.19-7.42,7.03-12.74,8.52l18.44,33.59h-11.51l-17.03-31.59h-21.02v31.59h-10.22v-82.21h31.47ZM1445.45,382.86h20.43c5.4,0,9.71-1.45,12.92-4.34,3.21-2.9,4.82-6.77,4.82-11.63s-1.61-8.61-4.82-11.51c-3.21-2.9-7.48-4.34-12.8-4.34h-20.55v31.83Z"/>
  </g>
  <g>
    <path class="st2" d="M493.91,210.36v311.78c0,6.79-5.5,12.3-12.28,12.3h-103.14c-6.78,0-12.28-5.51-12.28-12.3v-186.89c0-6.79-5.5-12.29-12.28-12.29h-71.22c-6.78,0-12.28-5.51-12.28-12.3v-103.28c0-6.79,5.5-12.3,12.28-12.3h195.94c8.42,0,15.25,6.84,15.25,15.27Z"/>
    <path class="st1" d="M494.03,769.33v103.28c0,6.79-5.5,12.3-12.28,12.3h-133.96c-84.7,0-153.36-68.75-153.36-153.57v-171.03c0-6.79-5.5-12.3-12.28-12.3h-70.31c-6.78,0-12.28-5.51-12.28-12.29v-103.28c0-6.79,5.5-12.29,12.28-12.29h70.31c6.78,0,12.28-5.51,12.28-12.3v-27.05c0-6.79,5.5-12.3,12.28-12.3h103.14c6.78,0,12.28,5.51,12.28,12.3v346.58c0,16.38,13.26,29.66,29.62,29.66h130.01c6.78,0,12.28,5.51,12.28,12.3Z"/>
  </g>
  <text class="st0" transform="translate(830.2 733.75)"><tspan x="0" y="0">india</tspan></text>
</svg>