<?xml version="1.0" encoding="UTF-8" standalone="no"?>
<!DOCTYPE svg PUBLIC "-//W3C//DTD SVG 1.1//EN" "http://www.w3.org/Graphics/SVG/1.1/DTD/svg11.dtd">
<svg width="100%" height="100%" viewBox="0 0 5896 864" version="1.1" xmlns="http://www.w3.org/2000/svg" xmlns:xlink="http://www.w3.org/1999/xlink" xml:space="preserve" xmlns:serif="http://www.serif.com/" style="fill-rule:evenodd;clip-rule:evenodd;stroke-linejoin:round;stroke-miterlimit:2;">
    <g transform="matrix(1,0,0,1,-16514.449167,-6545.879167)">
        <g transform="matrix(4.166667,0,0,4.166667,14062.5,0)">
            <g transform="matrix(1,0,0,1,1011.6171,1629.4356)">
                <path d="M0,144.958L0,7.39C0,4.956 1.96,2.975 4.395,2.95L34.448,2.64C36.918,2.614 38.935,4.61 38.935,7.081L38.935,16.772C45.724,11.581 53.111,7.487 61.097,4.492C69.285,1.497 78.069,0 87.454,0C97.437,0 105.125,1.497 110.516,4.492C116.105,7.487 120.398,11.78 123.393,17.371C129.983,12.18 137.471,7.987 145.857,4.792C154.443,1.597 164.525,0 176.106,0C192.479,0 204.559,4.293 212.345,12.879C220.133,21.265 224.026,34.143 224.026,51.514L224.026,144.958L184.193,144.958L184.193,56.007C184.193,46.622 182.196,39.933 178.203,35.94C174.209,31.747 167.82,29.651 159.035,29.651C147.054,29.651 138.569,33.943 130.581,42.529C130.581,47.257 130.488,50.218 130.581,54.809L130.581,144.958L92.845,144.958L92.845,56.007C92.845,47.221 91.347,40.632 88.353,36.239C85.358,31.847 79.567,29.651 70.981,29.651C64.992,29.651 59.3,31.248 53.91,34.443C48.719,37.438 44.026,40.932 39.832,44.925L39.832,144.958L0,144.958Z" style="fill:white;fill-rule:nonzero;"/>
            </g>
            <g transform="matrix(1,0,0,1,910.4716,1656.0916)">
                <path d="M0,94.642C8.985,94.642 16.772,93.144 23.361,90.149C29.95,87.155 35.141,83.361 38.935,78.769L38.935,56.306L-2.096,56.306C-17.87,56.306 -25.758,62.795 -25.758,75.774C-25.758,88.352 -17.172,94.642 0,94.642M-11.082,121.298C-20.066,121.298 -28.452,119.699 -36.24,116.505C-43.826,113.111 -50.017,108.22 -54.809,101.83C-59.401,95.24 -61.697,87.054 -61.697,77.271C-61.697,63.293 -56.806,52.113 -47.021,43.727C-37.037,35.341 -22.363,31.147 -2.995,31.147L38.935,31.147L38.935,27.254C38.935,18.469 36.439,12.279 31.448,8.685C26.656,5.091 16.873,3.294 2.096,3.294C-11.968,3.294 -25.581,5.182 -38.741,8.957C-41.655,9.793 -44.626,7.651 -44.626,4.62L-44.626,-14.648C-44.626,-16.472 -43.514,-18.12 -41.792,-18.726C-35.787,-20.841 -28.743,-22.586 -20.665,-23.961C-11.082,-25.758 -0.699,-26.656 10.482,-26.656C31.847,-26.656 48.32,-22.263 59.901,-13.478C71.681,-4.892 77.571,8.985 77.571,28.152L77.571,118.302L40.433,117.741L40.433,105.423C34.842,110.415 27.954,114.309 19.767,117.104C11.581,119.899 1.298,121.298 -11.082,121.298" style="fill:white;fill-rule:nonzero;"/>
            </g>
            <g transform="matrix(1,0,0,1,732.8693,1714.1951)">
                <path d="M0,-21.565L67.388,-21.565L67.388,-29.352C67.388,-37.538 64.992,-43.928 60.2,-48.52C55.408,-53.312 47.321,-55.708 35.941,-55.708C22.563,-55.708 13.178,-53.013 7.788,-47.622C2.596,-42.23 0,-33.545 0,-21.565M42.529,63.195C17.97,63.195 -1.497,57.105 -15.873,44.925C-30.249,32.545 -37.437,13.876 -37.437,-11.082C-37.437,-33.645 -31.447,-51.515 -19.467,-64.693C-7.288,-78.071 10.783,-84.76 34.743,-84.76C56.706,-84.76 73.478,-78.969 85.059,-67.389C96.839,-56.008 102.729,-41.032 102.729,-22.463L102.729,0.333C102.729,1.969 101.403,3.294 99.769,3.294L0,3.294C2.197,14.674 7.388,22.462 15.574,26.654C23.96,30.848 35.741,32.944 50.915,32.944C58.502,32.944 66.189,32.246 73.977,30.848C79.231,29.929 83.965,28.836 88.182,27.571C91.18,26.672 94.343,28.842 94.343,31.973L94.343,52.302C94.343,53.463 93.667,54.523 92.597,54.973C86.408,57.58 79.302,59.522 71.282,60.798C62.496,62.395 52.912,63.195 42.529,63.195" style="fill:white;fill-rule:nonzero;"/>
            </g>
            <g transform="matrix(1,0,0,1,1297.8937,1577.5115)">
                <path d="M0,125.827L-32.506,125.827C-34.762,125.827 -36.592,123.998 -36.592,121.741L-36.592,44.054C-36.592,41.798 -38.422,39.969 -40.678,39.969L-58.443,39.969C-60.699,39.969 -62.529,38.139 -62.529,35.883L-62.529,4.086C-62.529,1.829 -60.699,0 -58.443,0L0,0C2.256,0 4.086,1.829 4.086,4.086L4.086,121.741C4.086,123.998 2.256,125.827 0,125.827" style="fill:rgb(255,57,74);fill-rule:nonzero;"/>
            </g>
            <g transform="matrix(1,0,0,1,656.7538,1590.8344)">
                <path d="M0,187.488C-16.373,187.488 -28.552,183.195 -36.539,174.609C-44.326,166.023 -48.22,154.344 -48.22,139.567L-48.22,76.638C-48.22,75.003 -49.545,73.677 -51.18,73.677L-63.845,73.677C-66.298,73.677 -68.286,71.689 -68.286,69.237L-68.286,46.97C-68.286,44.518 -66.298,42.529 -63.845,42.529L-52.661,42.529C-50.208,42.529 -48.22,40.541 -48.22,38.088L-48.22,4.441C-48.22,1.988 -46.231,0 -43.779,0L-12.228,0C-9.775,0 -7.787,1.988 -7.787,4.441L-7.787,38.088C-7.787,40.541 -5.799,42.529 -3.346,42.529L23.357,42.529C25.944,42.529 27.984,44.732 27.785,47.311L26.073,69.577C25.894,71.891 23.965,73.677 21.645,73.677L-3.346,73.677C-5.799,73.677 -7.787,75.666 -7.787,78.118L-7.787,136.872C-7.787,144.66 -5.99,150.051 -2.396,153.045C1.198,155.84 6.789,157.238 14.376,157.238C18.101,157.238 21.915,156.795 25.817,155.908C28.773,155.238 31.747,157.374 31.747,160.404L31.747,180.109C31.747,181.312 31.023,182.402 29.895,182.816C26.016,184.245 21.842,185.303 17.371,185.99C12.18,186.989 6.389,187.488 0,187.488" style="fill:white;fill-rule:nonzero;"/>
            </g>
            <g transform="matrix(1,0,0,1,1395.7416,1746.7525)">
                <path d="M0,-145.491L0,-169.694C0,-171.865 1.76,-173.624 3.93,-173.624L40.535,-173.624C42.706,-173.624 44.465,-171.865 44.465,-169.694L44.465,-145.491C44.465,-143.32 42.706,-141.561 40.535,-141.561L3.93,-141.561C1.76,-141.561 0,-143.32 0,-145.491M3.328,24.203L3.328,-81.066C3.328,-83.237 1.568,-84.996 -0.602,-84.996L-13.719,-84.996C-16.075,-84.996 -17.902,-87.055 -17.621,-89.395L-14.934,-111.783C-14.697,-113.758 -13.022,-115.245 -11.032,-115.245L40.233,-115.245C42.404,-115.245 44.163,-113.485 44.163,-111.314L44.163,24.203C44.163,26.374 42.404,28.133 40.233,28.133L7.258,28.133C5.087,28.133 3.328,26.374 3.328,24.203" style="fill:white;fill-rule:nonzero;"/>
            </g>
            <g transform="matrix(1,0,0,1,1463.1932,1628.4829)">
                <path d="M0,146.403L0,3.025L37.811,3.025L39.323,16.636C45.169,12.204 52.581,8.318 61.556,4.991C70.526,1.664 79.956,0 89.838,0C108.791,0 122.606,4.438 131.279,13.309C139.947,22.185 144.286,35.896 144.286,54.448L144.286,146.403L103.45,146.403L103.45,56.565C103.45,46.885 101.484,40.032 97.551,35.996C93.62,31.965 86.307,29.946 75.622,29.946C69.369,29.946 63.068,31.359 56.716,34.181C50.364,37.007 45.07,40.533 40.835,44.768L40.835,146.403L0,146.403Z" style="fill:white;fill-rule:nonzero;"/>
            </g>
            <g transform="matrix(1,0,0,1,1695.5023,1600.956)">
                <path d="M0,147.009C12.704,147.009 23.391,142.675 32.063,134.002L32.063,68.665C23.594,61.207 13.711,57.473 2.42,57.473C-22.989,57.473 -35.693,73.807 -35.693,106.476C-35.693,121.803 -32.569,132.39 -26.316,138.237C-20.068,144.088 -11.296,147.009 0,147.009M-11.192,176.954C-23.896,176.954 -35.239,174.686 -45.222,170.149C-55.204,165.612 -63.021,158.154 -68.664,147.765C-74.313,137.381 -77.134,123.618 -77.134,106.476C-77.134,89.338 -74.01,74.918 -67.757,63.22C-61.509,51.528 -53.139,42.652 -42.65,36.602C-32.168,30.552 -20.673,27.527 -8.167,27.527C7.562,27.527 20.971,31.156 32.063,38.416L32.063,-29.945L72.899,-29.945L72.899,173.93L37.811,173.93L35.391,160.62C29.138,166.066 22.332,170.149 14.973,172.871C7.609,175.594 -1.11,176.954 -11.192,176.954" style="fill:white;fill-rule:nonzero;"/>
            </g>
            <g transform="matrix(1,0,0,1,0,348.014)">
                <path d="M1801.371,1225.114L1845.836,1225.114L1845.836,1257.177L1801.371,1257.177L1801.371,1225.114ZM1804.699,1426.872L1804.699,1313.742L1783.222,1313.742L1786.852,1283.494L1845.535,1283.494L1845.535,1426.872L1804.699,1426.872Z" style="fill:white;fill-rule:nonzero;"/>
            </g>
            <g transform="matrix(1,0,0,1,1925.0853,1655.4034)">
                <path d="M0,95.586C9.075,95.586 16.939,94.073 23.594,91.049C30.249,88.024 35.49,84.195 39.323,79.555L39.323,56.868L-2.117,56.868C-18.05,56.868 -26.014,63.423 -26.014,76.529C-26.014,89.233 -17.346,95.586 0,95.586M-11.191,122.507C-20.267,122.507 -28.688,120.844 -36.449,117.517C-44.215,114.189 -50.468,109.25 -55.204,102.694C-59.944,96.144 -62.313,87.925 -62.313,78.042C-62.313,63.929 -57.321,52.633 -47.339,44.164C-37.357,35.694 -22.587,31.459 -3.024,31.459L39.323,31.459L39.323,27.527C39.323,18.655 36.852,12.402 31.912,8.773C26.969,5.143 17.039,3.328 2.117,3.328C-14.217,3.328 -29.946,5.852 -45.07,10.891L-45.07,-17.846C-38.416,-20.465 -30.301,-22.634 -20.72,-24.35C-11.145,-26.06 -0.709,-26.921 10.587,-26.921C32.163,-26.921 48.852,-22.534 60.648,-13.763C72.445,-4.99 78.344,9.075 78.344,28.435L78.344,119.482L42.953,119.482L40.836,106.476C35.188,111.519 28.23,115.451 19.964,118.273C11.693,121.094 1.31,122.507 -11.191,122.507" style="fill:white;fill-rule:nonzero;"/>
            </g>
        </g>
    </g>
</svg>
